{"title":"BBC Proms 2012 - 7. Handel - Water Music and Music for the Royal","uid":7543440,"size":1495078113,"categoryP":"video","categoryS":"music_videos","magnet":"?xt=urn:btih:019a3d53af49afebf9884386281cf10dd5780014&amp;dn=BBC+Proms+2012+-+7.+Handel+-+Water+Music+and+Music+for+the+Royal&amp;tr=udp%3A%2F%2Ftracker.openbittorrent.com%3A80&amp;tr=udp%3A%2F%2Fopen.demonii.com%3A1337&amp;tr=udp%3A%2F%2Ftracker.coppersurfer.tk%3A6969&amp;tr=udp%3A%2F%2Fexodus.desync.com%3A6969","seeders":3,"leechers":0,"uploader":"deandominic","files":2,"time":1345284435,"description":"BBC Proms 2012 - 7. Handel - Water Music and Music for the Royal Fireworks\n\nHerve Niquet and Le Concert Spirituel make their Proms debut in this free Late Night Prom, giving Handel's three Water Music suites and Fireworks Music the big-band, period-instrument treatment. Niquet directs an expanded group of up to 80 musicians to evoke resplendent royal occasions on the River Thames and in Green Park, offering a new slant on London's favourite part pieces.\n\nHandel - Water Music Suite No. 1 in F major (26 mins)\nHandel - Water Music Suite No. 2 in D Major (10 mins)\nHandel - Water Music Suite No. 3 in G major (10 mins)\nHandel - Music for the Royal Fireworks (17 mins)\n\nVideo\nID                                       : 1\nFormat                                   : AVC\nFormat/Info                              : Advanced Video Codec\nFormat profile                           : &lt;a class=&quot;__cf_email__&quot; href=&quot;/cdn-cgi/l/email-protection&quot; data-cfemail=&quot;460e2f212e060a726877&quot;&gt;[email&amp;#160;protected]&lt;/a&gt;&lt;script data-cfhash='f9e31' type=&quot;text/javascript&quot;&gt;\n/* &lt;![CDATA[ */!function(){try{var t=&quot;currentScript&quot;in document?document.currentScript:function(){for(var t=document.getElementsByTagName(&quot;script&quot;),e=t.length;e--;)if(t[e].getAttribute(&quot;data-cfhash&quot;))return t[e]}();if(t&amp;&amp;t.previousSibling){var e,r,n,i,c=t.previousSibling,a=c.getAttribute(&quot;data-cfemail&quot;);if(a){for(e=&quot;&quot;,r=parseInt(a.substr(0,2),16),n=2;a.length-n;n+=2)i=parseInt(a.substr(n,2),16)^r,e+=String.fromCharCode(i);e=document.createTextNode(e),c.parentNode.replaceChild(e,c)}t.parentNode.removeChild(t);}}catch(u){}}()/* ]]&gt; */&lt;/script&gt;\nFormat settings, CABAC                   : Yes\nFormat settings, ReFrames                : 6 frames\nCodec ID                                 : avc1\nCodec ID/Info                            : Advanced Video Coding\nDuration                                 : 1h 11mn\nBit rate mode                            : Variable\nBit rate                                 : 2 693 Kbps\nMaximum bit rate                         : 3 500 Kbps\nWidth                                    : 1 280 pixels\nHeight                                   : 720 pixels\nDisplay aspect ratio                     : 16:9\nFrame rate mode                          : Constant\nFrame rate                               : 25.000 fps\nStandard                                 : PAL\nColor space                              : YUV\nChroma subsampling                       : 4:2:0\nBit depth                                : 8 bits\nScan type                                : Progressive\nBits/(Pixel*Frame)                       : 0.117\nStream size                              : 1.34 GiB (96%)\n\nAudio\nID                                       : 2\nFormat                                   : AAC\nFormat/Info                              : Advanced Audio Codec\nFormat profile                           : HE-AAC / LC\nCodec ID                                 : 40\nDuration                                 : 1h 11mn\nBit rate mode                            : Constant\nBit rate                                 : 96.0 Kbps\nChannel(s)                               : 2 channels\nChannel positions                        : Front: L R\nSampling rate                            : 48.0 KHz / 24.0 KHz\nCompression mode                         : Lossy\nStream size                              : 48.3 MiB (3%)\n","torrent":{"xt":"urn:btih:019a3d53af49afebf9884386281cf10dd5780014","amp;dn":"BBC+Proms+2012+-+7.+Handel+-+Water+Music+and+Music+for+the+Royal","amp;tr":["udp%3A%2F%2Ftracker.openbittorrent.com%3A80","udp%3A%2F%2Fopen.demonii.com%3A1337","udp%3A%2F%2Ftracker.coppersurfer.tk%3A6969","udp%3A%2F%2Fexodus.desync.com%3A6969"],"infoHash":"019a3d53af49afebf9884386281cf10dd5780014","infoHashBuffer":{"type":"Buffer","data":[1,154,61,83,175,73,175,235,249,136,67,134,40,28,241,13,213,120,0,20]},"announce":[],"urlList":[]}}